<?xml version="1.0" encoding="utf-8"?>
<?xml-stylesheet type="text/xsl" href="rss1.xsl"?>
<rss version="2.0" xmlns:atom="http://www.w3.org/2005/Atom" xmlns:content="http://purl.org/rss/1.0/modules/content/" xmlns:dc="http://purl.org/dc/elements/1.1/" xmlns:media="http://search.yahoo.com/mrss/">
<channel>
 <title>Getty</title>
 <link>http://www.gettyimg.com/</link>
 <atom:link href="http://www.gettyimg.com/" rel="self" type="application/rss+xml" />

 
                <item>
                <title><![CDATA[【Requests】[REQ AUD] - Kylie Minogue - Kiss Me Once Era Remixes Lossless]]></title>
                <link><![CDATA[https://sharemania.us/threads/kylie-minogue-kiss-me-once-era-remixes-lossless.223386/]]></link>
                <description><![CDATA[<article>
<blockquote class="messageText SelectQuoteContainer ugc baseHtml">
looking for these specific mixes. Any help would be greatly appreciated, I'm trying to compile all the mixes I have requested in these treads to make a big Kylie singles post. I want to just make on album for each bunch of remixes for each song. <br>
There are what I need for Kiss Me Once. <br>
<br>
Into The Blue (Patrick Hagenaar Colour Code Edit) 03:23<br>
<br>
Into The Blue (Radio Edit) 03:50<br>
<br>
Into The Blue (Yasutaka Nakata Remix)<br>
<br>
I Was Gonna Cancel (Moto Blanco Club Mix) 06:25<br>
<br>
I Was Gonna Cancel (Rene Amesz Remix) 05:30
<div class="messageTextEndMarker">&nbsp;</div>
</blockquote>
</article>]]></description>
                <author><![CDATA[HeBop2012]]></author>
                </item>

                
                <item>
                <title><![CDATA[【MASTER &amp; MASTER RIP】MASTER - NewJeans  - Zero (J.I.D Remix) [Master 4K 2160p]]]></title>
                <link><![CDATA[https://sharemania.us/threads/newjeans-zero-j-i-d-remix-master-4k-2160p.223385/]]></link>
                <description><![CDATA[<article>
<blockquote class="messageText SelectQuoteContainer ugc baseHtml">
<img src="https://images2.imgbox.com/18/59/qPx7jKlu_o.jpg" class="bbCodeImage LbImage" alt="[​IMG]" data-url="https://images2.imgbox.com/18/59/qPx7jKlu_o.jpg" style=""> <br>
<br>
<div data-s9e-mediaembed="youtube" style="display:inline-block;width:100%;max-width:640px"><div style="overflow:hidden;position:relative;padding-bottom:56.25%"><iframe allowfullscreen="" scrolling="no" style="background:url(https://i.ytimg.com/vi/HX9vJaXD8WE/hqdefault.jpg) 50% 50% / cover;border:0;height:100%;left:0;position:absolute;width:100%" src="https://www.youtube.com/embed/HX9vJaXD8WE"></iframe></div></div><br>
<br>
<div class="ToggleTriggerAnchor bbCodeSpoilerContainer">
<button type="button" class="button bbCodeSpoilerButton ToggleTrigger Tooltip JsOnly" data-target="> .SpoilerTarget"><span>Spoiler: <span class="SpoilerTitle">Media Info</span></span></button>
<div class="SpoilerTarget bbCodeSpoilerText">Format : MPEG-4<br>
Format profile : Base Media / Version 2<br>
Codec ID : mp42 (mp42/mp41)<br>
File size : 1.49 GiB<br>
Duration : 3 min 54 s<br>
Overall bit rate mode : Variable<br>
Overall bit rate : 54.6 Mb/s<br>
Encoded date : UTC 2023-06-19 14:07:10<br>
Tagged date : UTC 2023-06-19 14:07:36<br>
TIM : 00:00:22:09<br>
TSC : 24000<br>
TSZ : 1001<br>
<br>
Video<br>
ID : 1<br>
Format : AVC<br>
Format/Info : Advanced Video Codec<br>
Format profile : Main@L5.1<br>
Format settings : CABAC / 4 Ref Frames<br>
Format settings, CABAC : Yes<br>
Format settings, Reference : 4 frames<br>
Codec ID : avc1<br>
Codec ID/Info : Advanced Video Coding<br>
Duration : 3 min 54 s<br>
Bit rate : 54.3 Mb/s<br>
Width : 3 840 pixels<br>
Height : 2 160 pixels<br>
Display aspect ratio : 16:9<br>
Frame rate mode : Constant<br>
Frame rate : 23.976 (24000/1001) FPS<br>
Color space : YUV<br>
Chroma subsampling : 4:2:0<br>
Bit depth : 8 bits<br>
Scan type : Progressive<br>
Bits/(Pixel*Frame) : 0.273<br>
Stream size : 1.48 GiB (99%)<br>
Language : English<br>
Encoded date : UTC 2023-06-19 14:07:10<br>
Tagged date : UTC 2023-06-19 14:07:10<br>
Color range : Limited<br>
Color primaries : BT.709<br>
Transfer characteristics : BT.709<br>
Matrix coefficients : BT.709<br>
Codec configuration box : avcC<br>
<br>
Audio<br>
ID : 2<br>
Format : AAC LC<br>
Format/Info : Advanced Audio Codec Low Complexity<br>
Codec ID : mp4a-40-2<br>
Duration : 3 min 54 s<br>
Source duration : 3 min 54 s<br>
Bit rate mode : Variable<br>
Bit rate : 317 kb/s<br>
Maximum bit rate : 426 kb/s<br>
Channel(s) : 2 channels<br>
Channel layout : L R<br>
Sampling rate : 48.0 kHz<br>
Frame rate : 46.875 FPS (1024 SPF)<br>
Compression mode : Lossy<br>
Stream size : 8.87 MiB (1%)<br>
Source stream size : 8.87 MiB (1%)<br>
Language : English<br>
Encoded date : UTC 2023-06-19 14:07:10<br>
Tagged date : UTC 2023-06-19 14:07:10</div>
</div><br>
<div class="bbCodeBlock bbCodeVfcHH HiddenContent">
<div class="attribution type">Hidden Content:</div>
<blockquote>You must reply before you can see the hidden data contained here.</blockquote>
</div>
<div class="messageTextEndMarker">&nbsp;</div>
</blockquote>
</article>]]></description>
                <author><![CDATA[Eric Lyn]]></author>
                </item>

                
                <item>
                <title><![CDATA[【Cinema Center】MOVIE - 2.Lava.2.Lantula.2016.1080p.HULU.WEB-DL.AAC2.0.H.264-Samuel]]></title>
                <link><![CDATA[https://sharemania.us/threads/2-lava-2-lantula-2016-1080p-hulu-web-dl-aac2-0-h-264-samuel.223388/]]></link>
                <description><![CDATA[<article>
<blockquote class="messageText SelectQuoteContainer ugc baseHtml">
<div style="text-align: center"><b><span style="font-size: 26px">2 Lava 2 Lantula</span></b><br>
<img src="https://i.imgur.com/0ct0QvE.jpg" class="bbCodeImage LbImage" alt="[​IMG]" data-url="https://i.imgur.com/0ct0QvE.jpg" style=""><br>
<b><a href="https://i.imgur.com/1mUtXaW.jpg" target="_blank" class="externalLink" rel="nofollow">Alternate Artwork 1</a></b> | <b><a href="https://i.imgur.com/bmXRTGP.jpg" target="_blank" class="externalLink" rel="nofollow">Alternate Artwork 2</a></b> | <b><a href="https://i.imgur.com/cA8fRyN.jpg" target="_blank" class="externalLink" rel="nofollow">Screenshot</a></b><br>
<br>
<b>Starring:</b> Steve Guttenberg, Michael Winslow, Marion Ramsey • <b>Director:</b> Nick Simon<br>
<br>
<div class="bbCodeBlock bbCodeQuote">
<aside>
<blockquote class="quoteContainer"><div class="quote"><b><span style="font-size: 15px"><span style="font-family: 'Arial'">Description</span></span></b><br>
Colton West must defeat the lavalantulas once again.</div><div class="quoteExpand">Click to expand...</div></blockquote>
</aside>
</div>
<div class="bbCodeBlock bbCodeQuote">
<aside>
<blockquote class="quoteContainer"><div class="quote"><b><span style="font-size: 15px"><span style="font-family: 'Arial'">More Information</span></span><br>
Starring:</b> Steve Guttenberg, Michael Winslow, Marion Ramsey, Michele Weaver, Jimmy Bellinger, Lorynn York, Erron Jay, R. J. Walker, Martin Kove, Eric Etebari<br>
<b>Director:</b> Nick Simon<br>
<br>
TVPG • Comedy, Science Fiction • Movie • 2016 • 1h 22m</div><div class="quoteExpand">Click to expand...</div></blockquote>
</aside>
</div>
<div class="bbCodeBlock bbCodeQuote">
<aside>
<blockquote class="quoteContainer"><div class="quote"><b><span style="font-size: 15px">Source</span></b><br>
<img src="https://i.imgur.com/4uiLEFv.png" class="bbCodeImage LbImage" alt="[​IMG]" data-url="https://i.imgur.com/4uiLEFv.png" style=""></div><div class="quoteExpand">Click to expand...</div></blockquote>
</aside>
</div>
<div class="bbCodeBlock bbCodeQuote">
<aside>
<blockquote class="quoteContainer"><div class="quote"><b><span style="font-size: 15px">Release Name</span></b><br>
2.Lava.2.Lantula.2016.1080p.HULU.WEB-DL.AAC2.0.H.264-Samuel</div><div class="quoteExpand">Click to expand...</div></blockquote>
</aside>
</div>
<div class="ToggleTriggerAnchor bbCodeSpoilerContainer">
<button type="button" class="button bbCodeSpoilerButton ToggleTrigger Tooltip JsOnly" data-target="> .SpoilerTarget"><span>Spoiler: <span class="SpoilerTitle">Media Information</span></span></button>
<div class="SpoilerTarget bbCodeSpoilerText">General<br>
Complete name : 2.Lava.2.Lantula.2016.1080p.HULU.WEB-DL.AAC2.0.H.264-Samuel.mkv<br>
Format : Matroska<br>
Format version : Version 4<br>
File size : 3.38 GiB<br>
Duration : 1 h 21 min<br>
Overall bit rate : 5 936 kb/s<br>
Frame rate : 23.976 FPS<br>
Encoded date : 2023-06-11 14:39:31 UTC<br>
Writing application : mkvmerge v72.0.0 ('Minuano (Six-eight)') 64-bit<br>
Writing library : libebml v1.4.4 + libmatroska v1.7.1<br>
<br>
Video<br>
ID : 1<br>
Format : AVC<br>
Format/Info : Advanced Video Codec<br>
Format profile : High@L4<br>
Format settings : CABAC / 4 Ref Frames<br>
Format settings, CABAC : Yes<br>
Format settings, Reference frames : 4 frames<br>
Codec ID : V_MPEG4/ISO/AVC<br>
Duration : 1 h 21 min<br>
Bit rate : 5 870 kb/s<br>
Width : 1 920 pixels<br>
Height : 1 080 pixels<br>
Display aspect ratio : 16:9<br>
Frame rate mode : Constant<br>
Frame rate : 23.976 (24000/1001) FPS<br>
Color space : YUV<br>
Chroma subsampling : 4:2:0<br>
Bit depth : 8 bits<br>
Scan type : Progressive<br>
Bits/(Pixel*Frame) : 0.118<br>
Stream size : 3.35 GiB (99%)<br>
Default : Yes<br>
Forced : No<br>
<br>
Audio<br>
ID : 2<br>
Format : AAC LC SBR<br>
Format/Info : Advanced Audio Codec Low Complexity with Spectral Band Replication<br>
Commercial name : HE-AAC<br>
Format settings : Explicit<br>
Codec ID : A_AAC-2<br>
Duration : 1 h 21 min<br>
Bit rate : 64.0 kb/s<br>
Channel(s) : 2 channels<br>
Channel layout : L R<br>
Sampling rate : 48.0 kHz<br>
Frame rate : 23.438 FPS (2048 SPF)<br>
Compression mode : Lossy<br>
Stream size : 37.4 MiB (1%)<br>
Language : English<br>
Default : Yes<br>
Forced : No<br>
<br>
Text<br>
ID : 3<br>
Format : UTF-8<br>
Codec ID : S_TEXT/UTF8<br>
Codec ID/Info : UTF-8 Plain Text<br>
Duration : 1 h 20 min<br>
Bit rate : 87 b/s<br>
Frame rate : 0.398 FPS<br>
Count of elements : 1933<br>
Stream size : 51.8 KiB (0%)<br>
Language : English<br>
Default : No<br>
Forced : No</div>
</div><br>
<b>Screenshots</b><br>
<img src="https://i.imgur.com/0gBH9QZ.png" class="bbCodeImage LbImage" alt="[​IMG]" data-url="https://i.imgur.com/0gBH9QZ.png" style=""><br>
<br>
<b>Download</b><br>
<div class="bbCodeBlock bbCodeVfcHH HiddenContent">
<div class="attribution type">Hidden Content:</div>
<blockquote>You must reply before you can see the hidden data contained here.</blockquote>
</div></div>
<div class="messageTextEndMarker">&nbsp;</div>
</blockquote>
</article>]]></description>
                <author><![CDATA[Samuel]]></author>
                </item>

                
                <item>
                <title><![CDATA[【Requests】[REQ AUD] - Tina Turner - One Last Time - from DVD (2000)]]></title>
                <link><![CDATA[https://sharemania.us/threads/tina-turner-one-last-time-from-dvd-2000.223387/]]></link>
                <description><![CDATA[<article>
<blockquote class="messageText SelectQuoteContainer ugc baseHtml">
Hi everybody<br>
<br>
I'm searching for the audio of this Tina Turner's DVD<br>
<br>
<img src="https://i.discogs.com/XLuuhpx8yH-M9-jLbPRbIifmwZyBVSEjt97kQ5EckbE/rs:fit/g:sm/q:90/h:600/w:588/czM6Ly9kaXNjb2dz/LWRhdGFiYXNlLWlt/YWdlcy9SLTg4MDc5/MTItMTYzNTE4MDUy/Ni02MDczLmpwZWc.jpeg" class="bbCodeImage LbImage" alt="[​IMG]" data-url="https://i.discogs.com/XLuuhpx8yH-M9-jLbPRbIifmwZyBVSEjt97kQ5EckbE/rs:fit/g:sm/q:90/h:600/w:588/czM6Ly9kaXNjb2dz/LWRhdGFiYXNlLWlt/YWdlcy9SLTg4MDc5/MTItMTYzNTE4MDUy/Ni02MDczLmpwZWc.jpeg" style=""> <br>
<br>
mp3 or Flac and please, in mediafire or mega<br>
Thanks <img src="styles/default/xenforo/smilies/big_smile-48.png" class="mceSmilie" alt=":)" title="Smile    :)">
<div class="messageTextEndMarker">&nbsp;</div>
</blockquote>
</article>]]></description>
                <author><![CDATA[Material Girl]]></author>
                </item>

                </channel></rss>